<svg xmlns="http://www.w3.org/2000/svg" width="199.796" height="37" viewBox="0 0 199.796 37">
    <defs>
        <style>
            .cls-1{fill:#00205b}
        </style>
    </defs>
    <g id="AIRBUS_Blue" transform="translate(-221.696 -258.709)">
        <g id="Group_6399" data-name="Group 6399" transform="translate(221.696 258.709)">
            <path id="Path_9421" d="M373.772 272.1c0-6.751-4.429-11.883-13.558-11.883H341.85v35.487h8.642v-27.815h9.776c3.619 0 4.915 2.053 4.915 4.429 0 2.431-1.35 4.429-4.969 4.429h-8.372l11.883 18.958h9.831s-8.1-12.747-8.048-12.747c5.024-1.188 8.264-4.7 8.264-10.856" class="cls-1" data-name="Path 9421" transform="translate(-281.68 -259.463)"/>
            <path id="Rectangle_8431" d="M0 0h8.642v35.487H0z" class="cls-1" data-name="Rectangle 8431" transform="translate(45.695 .757)"/>
            <path id="Path_9422" d="M239.791 260.22L221.7 295.707h9.722l2.931-5.941h14.569l-3.619-7.454h-7.273l5.382-10.91h.109l12.1 24.306h9.938L247.46 260.22z" class="cls-1" data-name="Path 9422" transform="translate(-221.696 -259.463)"/>
            <path id="Path_9423" d="M441.234 277.289a7.882 7.882 0 0 0 4.214-7.508c0-5.725-4.267-9.56-11.451-9.56h-20.2v35.487h21.013c7.345 0 12.153-3.943 12.153-9.938a8.616 8.616 0 0 0-5.726-8.48m-18.8-9.561H434a3.133 3.133 0 0 1-.055 6.266h-11.5v-6.266zm11.774 20.525h-11.774v-7.238h11.775a3.568 3.568 0 0 1 3.727 3.565 3.622 3.622 0 0 1-3.727 3.673" class="cls-1" data-name="Path 9423" transform="translate(-317.596 -259.463)"/>
            <path id="Path_9424" d="M510.96 280.043c0 5.386-2.485 8.372-7.4 8.372-4.861 0-7.346-2.986-7.346-8.372V260.22h-8.858v19.175c0 10.965 5.78 17.069 16.2 17.069s16.258-6.1 16.258-17.069V260.22h-8.854z" class="cls-1" data-name="Path 9424" transform="translate(-354.32 -259.463)"/>
            <path id="Path_9425" d="M578.149 273.563c-8.2-2-9.992-2.188-9.992-4.538 0-1.817 2.052-2.7 5.509-2.7 4.591 0 9.48 1.152 12.261 2.863l2.755-7.238a32.623 32.623 0 0 0-14.908-3.241c-9.129 0-14.26 4.538-14.26 10.641 0 6.567 3.833 9.235 12.639 11.127 6.856 1.511 8.317 2.454 8.317 4.375 0 2.086-1.89 3.025-5.617 3.025a29.648 29.648 0 0 1-14.206-3.457L558 291.981c4.267 2.269 10.641 3.727 17.068 3.727 8.966 0 14.313-4.159 14.313-11.127 0-5.59-3.616-9.181-11.234-11.018" class="cls-1" data-name="Path 9425" transform="translate(-389.587 -258.709)"/>
        </g>
    </g>
</svg>
