<?xml version="1.0" encoding="UTF-8"?>
<svg width="264px" height="177px" viewBox="0 0 264 177" version="1.1" xmlns="http://www.w3.org/2000/svg" xmlns:xlink="http://www.w3.org/1999/xlink">
    <!-- Generator: Sketch 51.3 (57544) - http://www.bohemiancoding.com/sketch -->
    <title>aurora_app_logo_final</title>
    <desc>Created with Sketch.</desc>
    <defs></defs>
    <g id="aurora_app_logo_final" stroke="none" stroke-width="1" fill="none" fill-rule="evenodd">
        <path d="M157.357,8.384 C154.73,6.533 151.177,4.316 149.52,3.565 C144.894,1.469 139.892,0.093 134.527,0.127 C129.163,0.093 124.107,1.354 119.535,3.565 C108.783,8.449 97.514,18.889 86.871,37.121 C86.871,37.121 65.636,73.637 54.587,92.852 C53.39,94.932 43.99,110.079 74.602,107.879 C95.38,106.385 113.185,93.247 123.795,76.497 C123.795,76.497 156.126,22.191 158.869,16.795 C161.612,11.399 158.358,9.089 157.357,8.384" id="Fill-1" fill="#1C4E8B"></path>
        <path d="M146.257,79.122 C158.644,93.09 179.43,106.455 199.69,108.008 C202.585,108.23 205.48,108.302 208.315,107.918 C222.26,106.025 217.939,98.822 217.932,98.809 L217.931,98.817 C217.972,98.889 174.235,27.925 174.235,27.925 C168.621,17.648 164.67,26.153 164.67,26.153 L145.833,59.197 C145.833,59.197 138.521,70.398 146.257,79.122" id="Fill-3" fill="#288EBF"></path>
        <path d="M23.552,154.401 C18.785,154.401 15.002,155.068 12.205,156.403 C9.407,157.738 8.01,159.932 8.01,162.983 C8.01,165.781 8.947,167.767 10.823,168.942 C12.697,170.119 15.033,170.706 17.831,170.706 C19.992,170.706 21.884,170.342 23.504,169.609 C25.125,168.88 26.476,167.91 27.557,166.701 C28.637,165.495 29.464,164.079 30.036,162.458 C30.608,160.837 30.926,159.107 30.99,157.262 L30.99,154.401 L23.552,154.401 Z M2.002,136.951 C4.291,134.601 7.009,132.868 10.155,131.755 C13.302,130.644 16.496,130.086 19.738,130.086 C26.349,130.086 31.116,131.645 34.041,134.759 C36.964,137.874 38.427,142.61 38.427,148.966 L38.427,168.132 C38.427,169.404 38.49,170.723 38.618,172.089 C38.745,173.457 38.904,174.711 39.095,175.856 L31.943,175.856 C31.688,174.84 31.545,173.71 31.514,172.471 C31.481,171.231 31.467,170.135 31.467,169.181 L31.276,169.181 C29.813,171.469 27.858,173.345 25.412,174.807 C22.964,176.269 20.024,177 16.591,177 C14.303,177 12.158,176.714 10.155,176.142 C8.153,175.569 6.404,174.728 4.911,173.614 C3.417,172.503 2.225,171.12 1.335,169.467 C0.444,167.815 0,165.907 0,163.746 C0,160.06 0.954,157.166 2.861,155.068 C4.768,152.971 7.135,151.414 9.964,150.397 C12.792,149.38 15.844,148.744 19.118,148.489 C22.392,148.236 25.395,148.108 28.129,148.108 L30.99,148.108 L30.99,146.773 C30.99,143.531 30.02,141.084 28.082,139.431 C26.142,137.778 23.424,136.951 19.929,136.951 C17.512,136.951 15.145,137.35 12.825,138.144 C10.504,138.94 8.454,140.162 6.675,141.815 L2.002,136.951 Z" id="Fill-4" fill="#1B4D8A"></path>
        <path d="M90.966,165.272 C90.966,167.307 91.029,169.214 91.157,170.992 C91.284,172.773 91.348,174.394 91.348,175.856 L84.291,175.856 C84.291,174.649 84.259,173.441 84.196,172.233 C84.132,171.025 84.101,169.786 84.101,168.514 L83.91,168.514 C83.401,169.595 82.686,170.644 81.765,171.66 C80.843,172.678 79.746,173.583 78.475,174.378 C77.203,175.173 75.772,175.808 74.184,176.284 C72.595,176.762 70.878,177 69.035,177 C66.111,177 63.584,176.555 61.455,175.665 C59.324,174.775 57.56,173.536 56.163,171.946 C54.764,170.358 53.731,168.435 53.063,166.177 C52.396,163.922 52.062,161.457 52.062,158.787 L52.062,131.231 L59.5,131.231 L59.5,158.025 C59.5,161.776 60.325,164.733 61.979,166.893 C63.631,169.054 66.206,170.135 69.703,170.135 C72.118,170.135 74.199,169.722 75.948,168.895 C77.696,168.069 79.126,166.893 80.239,165.366 C81.351,163.841 82.178,162.029 82.718,159.932 C83.258,157.834 83.529,155.514 83.529,152.971 L83.529,131.231 L90.966,131.231 L90.966,165.272" id="Fill-5" fill="#1B4D8A"></path>
        <path d="M105.079,141.815 C105.079,139.781 105.015,137.874 104.888,136.094 C104.76,134.315 104.697,132.693 104.697,131.231 L111.753,131.231 C111.753,132.439 111.785,133.647 111.849,134.854 C111.911,136.063 111.944,137.302 111.944,138.572 L112.135,138.572 C112.643,137.492 113.358,136.443 114.28,135.426 C115.201,134.41 116.297,133.504 117.57,132.708 C118.841,131.914 120.271,131.278 121.86,130.801 C123.448,130.324 125.165,130.086 127.01,130.086 C127.518,130.086 128.025,130.119 128.535,130.182 C129.043,130.245 129.551,130.372 130.061,130.563 L129.584,138.096 C128.312,137.714 126.977,137.524 125.579,137.524 C121.002,137.524 117.68,139.002 115.615,141.958 C113.549,144.913 112.516,148.966 112.516,154.115 L112.516,175.856 L105.079,175.856 L105.079,141.815" id="Fill-6" fill="#1B4D8A"></path>
        <path d="M142.361,153.543 C142.361,155.896 142.727,158.072 143.458,160.074 C144.189,162.077 145.254,163.826 146.652,165.319 C148.05,166.814 149.719,167.989 151.658,168.847 C153.597,169.705 155.773,170.135 158.189,170.135 C160.605,170.135 162.782,169.705 164.722,168.847 C166.66,167.989 168.328,166.814 169.728,165.319 C171.125,163.826 172.19,162.077 172.922,160.074 C173.652,158.072 174.019,155.896 174.019,153.543 C174.019,151.192 173.652,149.014 172.922,147.012 C172.19,145.009 171.125,143.261 169.728,141.767 C168.328,140.275 166.66,139.097 164.722,138.238 C162.782,137.381 160.605,136.951 158.189,136.951 C155.773,136.951 153.597,137.381 151.658,138.238 C149.719,139.097 148.05,140.275 146.652,141.767 C145.254,143.261 144.189,145.009 143.458,147.012 C142.727,149.014 142.361,151.192 142.361,153.543 Z M134.352,153.543 C134.352,150.048 134.955,146.868 136.164,144.008 C137.37,141.148 139.024,138.685 141.122,136.618 C143.22,134.553 145.73,132.946 148.655,131.803 C151.578,130.658 154.757,130.086 158.189,130.086 C161.623,130.086 164.801,130.658 167.726,131.803 C170.648,132.946 173.16,134.553 175.258,136.618 C177.355,138.685 179.008,141.148 180.217,144.008 C181.423,146.868 182.028,150.048 182.028,153.543 C182.028,157.04 181.423,160.218 180.217,163.078 C179.008,165.939 177.355,168.403 175.258,170.468 C173.16,172.534 170.648,174.139 167.726,175.283 C164.801,176.428 161.623,177 158.189,177 C154.757,177 151.578,176.428 148.655,175.283 C145.73,174.139 143.22,172.534 141.122,170.468 C139.024,168.403 137.37,165.939 136.164,163.078 C134.955,160.218 134.352,157.04 134.352,153.543 Z" id="Fill-7" fill="#1B4D8A"></path>
        <path d="M193.564,141.815 C193.564,139.781 193.501,137.874 193.374,136.094 C193.246,134.315 193.184,132.693 193.184,131.231 L200.239,131.231 C200.239,132.439 200.271,133.647 200.335,134.854 C200.397,136.063 200.431,137.302 200.431,138.572 L200.621,138.572 C201.129,137.492 201.844,136.443 202.767,135.426 C203.688,134.41 204.784,133.504 206.056,132.708 C207.327,131.914 208.757,131.278 210.347,130.801 C211.936,130.324 213.651,130.086 215.496,130.086 C216.004,130.086 216.512,130.119 217.022,130.182 C217.529,130.245 218.038,130.372 218.547,130.563 L218.07,138.096 C216.798,137.714 215.463,137.524 214.065,137.524 C209.489,137.524 206.166,139.002 204.102,141.958 C202.035,144.913 201.002,148.966 201.002,154.115 L201.002,175.856 L193.564,175.856 L193.564,141.815" id="Fill-8" fill="#1B4D8A"></path>
        <path d="M248.106,154.401 C243.338,154.401 239.556,155.068 236.759,156.403 C233.961,157.738 232.564,159.932 232.564,162.983 C232.564,165.781 233.501,167.767 235.376,168.942 C237.251,170.119 239.587,170.706 242.385,170.706 C244.545,170.706 246.438,170.342 248.059,169.609 C249.68,168.88 251.029,167.91 252.11,166.701 C253.191,165.495 254.018,164.079 254.59,162.458 C255.162,160.837 255.48,159.107 255.544,157.262 L255.544,154.401 L248.106,154.401 Z M226.557,136.951 C228.845,134.601 231.563,132.868 234.709,131.755 C237.855,130.644 241.05,130.086 244.292,130.086 C250.902,130.086 255.67,131.645 258.595,134.759 C261.518,137.874 262.981,142.61 262.981,148.966 L262.981,168.132 C262.981,169.404 263.044,170.723 263.172,172.089 C263.299,173.457 263.458,174.711 263.648,175.856 L256.497,175.856 C256.242,174.84 256.1,173.71 256.068,172.471 C256.035,171.231 256.021,170.135 256.021,169.181 L255.829,169.181 C254.366,171.469 252.412,173.345 249.966,174.807 C247.518,176.269 244.578,177 241.146,177 C238.856,177 236.711,176.714 234.709,176.142 C232.706,175.569 230.957,174.728 229.465,173.614 C227.97,172.503 226.778,171.12 225.889,169.467 C224.998,167.815 224.554,165.907 224.554,163.746 C224.554,160.06 225.508,157.166 227.414,155.068 C229.321,152.971 231.689,151.414 234.519,150.397 C237.346,149.38 240.397,148.744 243.672,148.489 C246.945,148.236 249.949,148.108 252.683,148.108 L255.544,148.108 L255.544,146.773 C255.544,143.531 254.573,141.084 252.636,139.431 C250.695,137.778 247.978,136.951 244.482,136.951 C242.066,136.951 239.698,137.35 237.379,138.144 C235.058,138.94 233.008,140.162 231.229,141.815 L226.557,136.951 Z" id="Fill-9" fill="#1B4D8A"></path>
    </g>
</svg>