<?xml version="1.0" encoding="UTF-8"?>
<svg width="91px" height="116px" viewBox="0 0 91 116" version="1.1" xmlns="http://www.w3.org/2000/svg" xmlns:xlink="http://www.w3.org/1999/xlink">
    <!-- Generator: Sketch 61 (89581) - https://sketch.com -->
    <title>icons8-audio_file_2</title>
    <desc>Created with Sketch.</desc>
    <g id="Job-Application-|-Uploading-Resume" stroke="none" stroke-width="1" fill="none" fill-rule="evenodd">
        <g id="1.1.1.5-Candidate-portal---Application---Upload-Resume---Success" transform="translate(-1003.000000, -239.000000)" fill-rule="nonzero">
            <g id="icons8-audio_file_2" transform="translate(1003.000000, 239.000000)">
                <g id="Group" transform="translate(3.000000, 3.000000)">
                    <path d="M64,0 L10,0 C4.5,0 0,4.5 0,10 L0,100 C0,105.5 4.5,110 10,110 L74,110 C79.5,110 84,105.5 84,100 L84,20 C84,9 75,0 64,0 Z" id="Path" fill="#1FD4AF"></path>
                    <path d="M84,20 L74,20 C68.5,20 64,15.5 64,10 L64,0 L64,0 C75,0 84,9 84,20 L84,20 Z" id="Path" fill="#FFFFFF"></path>
                    <path d="M64,53 L20,53 C18.3,53 17,51.7 17,50 C17,48.3 18.3,47 20,47 L64,47 C65.7,47 67,48.3 67,50 C67,51.7 65.7,53 64,53 Z" id="Path" fill="#0EAF89"></path>
                    <path d="M54,23 L30,23 C28.3,23 27,21.7 27,20 C27,18.3 28.3,17 30,17 L54,17 C55.7,17 57,18.3 57,20 C57,21.7 55.7,23 54,23 Z" id="Path" fill="#0EAF89"></path>
                    <path d="M64,68 L20,68 C18.3,68 17,66.7 17,65 C17,63.3 18.3,62 20,62 L64,62 C65.7,62 67,63.3 67,65 C67,66.7 65.7,68 64,68 Z" id="Path" fill="#0EAF89"></path>
                    <path d="M49.2,83 L20.2,83 C18.5,83 17.2,81.7 17.2,80 C17.2,78.3 18.5,77 20.2,77 L49.2,77 C50.9,77 52.2,78.3 52.2,80 C52.2,81.7 50.9,83 49.2,83 Z" id="Path" fill="#0EAF89"></path>
                    <path d="M64.2,83 L64,83 C62.3,83 61,81.7 61,80 C61,78.3 62.3,77 64,77 L64.2,77 C65.9,77 67.2,78.3 67.2,80 C67.2,81.7 65.9,83 64.2,83 Z" id="Path" fill="#0EAF89"></path>
                </g>
                <path d="M13,6 L64,6 L64,13 C64,20.2 69.8,26 77,26 L86.6,26 C86.7,26 86.8,26 87,26 C87,26 87,26 87,26 C88.2,26 89.3,25.2 89.8,24.2 C90,23.8 90.1,23.4 90.1,23 C90.1,22.9 90.1,22.8 90.1,22.6 C90,16.6 87.6,11 83.4,6.7 C78.9,2.4 73.2,0 67,0 C67,0 67,0 67,0 C67,0 67,0 67,0 C67,0 67,0 67,0 L13,0 C5.8,0 0,5.8 0,13 L0,103 C0,110.3 5.9,116 11,116 L77,116 C80.5,116 83.7,114.6 86.2,112.2 C88.7,109.7 90,106.5 90,103 L90,36 C90,34.3 88.7,33 87,33 C87,33 87,33 87,33 C85.3,33 84,34.3 84,36 L84,103 C84,104.9 83.3,106.6 82,108 C80.7,109.4 78.9,110.1 77,110.1 L11,110.1 C9.3,110.1 6,107.1 6,103.1 L6,13 C6,9.1 9.1,6 13,6 Z M83.7,20 L77,20 C73.1,20 70,16.9 70,13 L70,6.3 C73.4,6.9 76.5,8.5 79,11 C81.5,13.5 83.1,16.6 83.7,20 Z" id="Shape" fill="#444B54"></path>
            </g>
        </g>
    </g>
</svg>