<?xml version="1.0" encoding="UTF-8"?>
<svg width="122px" height="91px" viewBox="0 0 122 91" version="1.1" xmlns="http://www.w3.org/2000/svg" xmlns:xlink="http://www.w3.org/1999/xlink">
    <!-- Generator: Sketch 61 (89581) - https://sketch.com -->
    <title>icons8-portrait_mode_scanning</title>
    <desc>Created with Sketch.</desc>
    <g id="Symbols" stroke="none" stroke-width="1" fill="none" fill-rule="evenodd">
        <g id="Assets-/-Illustration-/-Scanning-document" transform="translate(-3.000000, -19.000000)" fill-rule="nonzero">
            <g id="icons8-portrait_mode_scanning" transform="translate(3.000000, 19.000000)">
                <g id="Group" transform="translate(0.000000, 3.000000)">
                    <path d="M95,85 L11,85 L11,10 C11,4.5 15.5,0 21,0 L75,0 C86,0 95,9 95,20 L95,85 Z" id="Path" fill="#FFFFFF"></path>
                    <path d="M75,53 L31,53 C29.3,53 28,51.7 28,50 C28,48.3 29.3,47 31,47 L75,47 C76.7,47 78,48.3 78,50 C78,51.7 76.7,53 75,53 Z" id="Path" fill="#E9EEF4"></path>
                    <path d="M65,23 L41,23 C39.3,23 38,21.7 38,20 C38,18.3 39.3,17 41,17 L65,17 C66.7,17 68,18.3 68,20 C68,21.7 66.7,23 65,23 Z" id="Path" fill="#E9EEF4"></path>
                    <path d="M60,68 L31,68 C29.3,68 28,66.7 28,65 C28,63.3 29.3,62 31,62 L60,62 C61.7,62 63,63.3 63,65 C63,66.7 61.7,68 60,68 Z" id="Path" fill="#E9EEF4"></path>
                    <path d="M75,68 C74.2,68 73.4,67.7 72.9,67.1 C72.3,66.5 72,65.8 72,65 C72,64.8 72,64.6 72.1,64.4 C72.1,64.2 72.2,64 72.3,63.8 C72.4,63.6 72.5,63.5 72.6,63.3 C72.7,63.1 72.8,63 73,62.9 C74.1,61.8 76.1,61.8 77.2,62.9 C77.3,63 77.5,63.2 77.6,63.3 C77.7,63.5 77.8,63.6 77.9,63.8 C78,64 78,64.2 78.1,64.4 C78.1,64.6 78.2,64.8 78.2,65 C78.2,65.8 77.9,66.6 77.3,67.1 C77.2,67.2 77,67.4 76.9,67.5 C76.7,67.6 76.6,67.7 76.4,67.8 C76.2,67.9 76,67.9 75.8,68 C75.4,68 75.2,68 75,68 Z" id="Path" fill="#E9EEF4"></path>
                    <path d="M103,88 L3,88 C1.3,88 0,86.7 0,85 C0,83.3 1.3,82 3,82 L103,82 C104.7,82 106,83.3 106,85 C106,86.7 104.7,88 103,88 Z" id="Path" fill="#71C2FF"></path>
                    <path d="M118,88 C117.8,88 117.6,88 117.4,87.9 C117.2,87.9 117,87.8 116.8,87.7 C116.6,87.6 116.5,87.5 116.3,87.4 C116.1,87.3 116,87.2 115.9,87 C115.3,86.4 115,85.7 115,84.9 C115,84.7 115,84.5 115.1,84.3 C115.1,84.1 115.2,83.9 115.3,83.7 C115.4,83.5 115.5,83.4 115.6,83.2 C115.7,83 115.8,82.9 116,82.8 C117.1,81.7 119.1,81.7 120.2,82.8 C120.3,82.9 120.5,83.1 120.6,83.2 C120.7,83.4 120.8,83.5 120.9,83.7 C121,83.9 121,84.1 121.1,84.3 C121.1,84.5 121.2,84.7 121.2,84.9 C121.2,85.1 121.2,85.3 121.1,85.5 C121.1,85.7 121,85.9 120.9,86.1 C120.8,86.3 120.7,86.5 120.6,86.6 C120.5,86.8 120.4,86.9 120.2,87 C119.6,87.7 118.8,88 118,88 Z" id="Path" fill="#71C2FF"></path>
                </g>
                <g id="Group" transform="translate(8.000000, 0.000000)" fill="#444B54">
                    <path d="M90,73 L90,36 C90,34.3 88.7,33 87,33 C85.3,33 84,34.3 84,36 L84,73 C84,74.7 85.3,76 87,76 C88.7,76 90,74.7 90,73 Z" id="Path"></path>
                    <path d="M6,73 L6,13 C6,9.1 9.1,6 13,6 L64,6 L64,13 C64,20.2 69.8,26 77,26 L87,26 C88.7,26 90,24.7 90,23 C90,10.3 79.7,0 67,0 C67,0 67,0 67,0 C67,0 67,0 67,0 L13,0 C5.8,0 0,5.8 0,13 L0,73 C0,74.7 1.3,76 3,76 C4.7,76 6,74.7 6,73 Z M83.7,20 L77,20 C73.1,20 70,16.9 70,13 L70,6.3 C77,7.5 82.5,13 83.7,20 Z" id="Shape"></path>
                </g>
            </g>
        </g>
    </g>
</svg>