<?xml version="1.0" encoding="UTF-8"?>
<svg width="256px" height="61px" viewBox="0 0 256 61" version="1.1" xmlns="http://www.w3.org/2000/svg" xmlns:xlink="http://www.w3.org/1999/xlink">
    <!-- Generator: Sketch 57.1 (83088) - https://sketch.com -->
    <title>Blue Gradient</title>
    <desc>Created with Sketch.</desc>
    <defs>
        <linearGradient x1="21.6015261%" y1="25.9467121%" x2="90.1258681%" y2="100%" id="linearGradient-1">
            <stop stop-color="#0050C8" stop-opacity="0.2" offset="0%"></stop>
            <stop stop-color="#0050C8" stop-opacity="0.6" offset="100%"></stop>
        </linearGradient>
    </defs>
    <g id="Page-1" stroke="none" stroke-width="1" fill="none" fill-rule="evenodd">
        <g id="Blue-Gradient" transform="translate(-272.000000, -369.000000)">
            <g transform="translate(272.000000, 369.000000)">
                <g id="Logo">
                    <path d="M59.5321179,4.66469361 C58.1182464,3.65375086 56.6343048,2.74396647 55.0914413,1.94217527 C52.4353483,0.685392529 49.5358478,0.022594616 46.5959092,0 C43.6519563,-0.0125113953 40.7447443,0.652049301 38.1003771,1.94217527 C32.0019143,4.70192039 25.6221755,10.5998829 19.5921648,20.9005323 C19.5921648,20.9005323 7.55952429,41.5303716 1.29677636,52.3869408 C0.618477945,53.5620661 -4.70834263,62.1192614 12.637428,60.8771279 C24.411195,60.033321 34.4997949,52.6103015 40.5161152,43.1472546 C40.5161152,43.1472546 58.8363953,12.4661853 60.390881,9.41731223 C61.9453667,6.36843914 60.1008929,5.06426103 59.534607,4.66593451" id="Fill-1-Copy-3" fill="#0050C8"></path>
                    <path d="M53.0130438,44.6518334 C60.0344804,52.50656 71.8115708,60.0228379 83.2985913,60.8961342 C84.9254727,61.0498749 86.5641616,61.0328997 88.1874532,60.8454905 C96.0915491,59.7807359 93.6427609,55.7304688 93.6377811,55.7230575 C93.6614349,55.7638196 68.871033,15.8552868 68.871033,15.8552868 C65.6889777,10.0757199 63.4493386,14.858469 63.4493386,14.858469 L52.7727712,33.4496766 C52.7727712,33.4496766 48.6283807,39.7492686 53.0130438,44.6555391" id="Fill-3-Copy-2" fill="url(#linearGradient-1)"></path>
                </g>
                <g id="Iso" transform="translate(110.000000, 18.000000)" fill="#0050C8">
                    <path d="M12.7968435,13.0135686 C10.6030817,12.9216312 8.41518312,13.2977634 6.38600603,14.1156866 C4.89186505,14.7194394 3.94466682,16.169807 4.01575835,17.7450542 C3.89226107,19.0398186 4.50140186,20.2974914 5.60543756,21.0272123 C6.8043823,21.7098067 8.17790284,22.0455039 9.56536445,21.9950437 C10.6658703,22.0186835 11.7588208,21.8124328 12.7707832,21.3901491 C13.6415313,21.0199949 14.4218838,20.4740714 15.060368,19.7883882 C15.6809431,19.1069931 16.1571022,18.312638 16.4614202,17.4510754 C16.7900562,16.5294236 16.971696,15.5640724 17,14.5887142 L17,13.0159882 L12.7968435,13.0135686 Z M1.13718666,3.80504039 C2.41737349,2.50669475 3.98726201,1.52057791 5.72204032,0.925089794 C7.45156967,0.315732007 9.27423792,0.00284408814 11.1109726,0 C14.8287553,0 17.5098407,0.863417141 19.1542288,2.59025142 C20.7986168,4.3170857 21.622046,6.94141938 21.6245163,10.4632525 L21.6245163,21.084744 C21.6245163,21.7899221 21.6603355,22.5202561 21.7319738,23.2757461 C21.8036121,24.0312361 21.8929542,24.7270822 22,25.3632843 L17.9746665,25.3632843 C17.8226285,24.7488832 17.7397852,24.1198365 17.7276377,23.487543 C17.7086988,22.8002175 17.7000528,22.1916058 17.7016997,21.6617079 L17.5942422,21.6617079 C16.7587281,22.9416987 15.6289209,24.0096599 14.2964083,24.779017 C12.7868529,25.6237298 11.0713067,26.0447099 9.33607097,25.9962404 C8.11314055,26.0045012 6.89503797,25.8443074 5.71709974,25.5203061 C4.65762347,25.2331636 3.66018252,24.7579723 2.77375215,24.1180647 C1.93900607,23.5082841 1.25218215,22.7233273 0.762938097,21.8199469 C0.247734474,20.8436053 -0.0104816772,19.7554122 0.0119706873,18.655166 C-0.0918139027,16.9093182 0.482241398,15.1899448 1.61765758,13.8459163 C2.71068381,12.6698219 4.08337131,11.7801048 5.61211252,11.2568821 C7.2723245,10.6786698 9.00383951,10.3228984 10.7601917,10.199115 C12.6013794,10.0587285 14.2894092,9.98853533 15.8242812,9.98853533 L17.4299681,9.98853533 L17.4299681,9.24846349 C17.5403657,7.71768623 16.9386561,6.22045771 15.7946377,5.17928562 C14.4837876,4.19272881 12.8560381,3.70483384 11.2097841,3.80504039 C9.85031773,3.80551574 8.50040362,4.0288826 7.21532913,4.4659927 C5.92946038,4.89515714 4.75068027,5.58842968 3.75692658,6.49997303 L1.13718666,3.80504039 Z" id="Fill-4-Copy-2"></path>
                    <path d="M50.786008,19.596029 C50.786008,20.7078633 50.8216733,21.7477084 50.893004,22.7155641 C50.9643347,23.6834199 51,24.5692879 51,25.3731681 L47.0485272,25.3731681 C47.0485272,24.7140663 47.0308995,24.0541647 46.9956441,23.3934631 C46.9603887,22.7327616 46.942761,22.0556625 46.942761,21.3621658 L46.8357651,21.3621658 C46.524758,21.9898196 46.119812,22.5688666 45.6342123,23.0803098 C45.092592,23.655871 44.4717567,24.1553568 43.7894538,24.5644886 C43.0397921,25.0149749 42.2315401,25.3652508 41.3863483,25.6059334 C40.4502445,25.8732974 39.4789661,26.0050842 38.5036056,25.9970752 C37.0533496,26.0301643 35.6107753,25.7822138 34.2594312,25.2675839 C33.1248453,24.8218539 32.1109845,24.1267228 31.2967489,23.2362866 C30.4880835,22.3227106 29.8956127,21.2465718 29.5614461,20.0843562 C29.1764,18.7718843 28.9875177,17.4120696 29.0006395,16.0469578 L29.0006395,1.00119982 L33.1648744,1.00119982 L33.1648744,15.6390186 C33.0656921,17.3593508 33.5540003,19.063214 34.5533627,20.4838967 C35.6145821,21.7247469 37.2276309,22.3851814 38.8787065,22.2548328 C40.0812748,22.2844244 41.2755506,22.0528746 42.3751389,21.5769338 C43.3312089,21.1440595 44.1583122,20.4804397 44.7782444,19.6488211 C45.4301433,18.7543974 45.9013765,17.746979 46.1667326,16.6804634 C46.4811123,15.4366811 46.6335836,14.1592067 46.6205432,12.87823 L46.6205432,1 L50.7847782,1 L50.7847782,19.5972288" id="Fill-5-Copy-2"></path>
                    <path d="M58.2108361,6.40468828 C58.2108361,5.29391169 58.1756967,4.25430797 58.105418,3.28587712 C58.0351393,2.31744628 58,1.43218373 58,0.630089474 L61.8919855,0.630089474 C61.8919855,1.28983799 61.9097571,1.94918665 61.9453003,2.60813547 C61.9808436,3.26708429 61.9998269,3.94242686 62.0022503,4.63416318 L62.1076683,4.63416318 C62.4139638,4.0065835 62.8129498,3.42765344 63.2915008,2.91641796 C63.8252087,2.34106893 64.4368764,1.8417086 65.1090531,1.43258357 C65.8473961,0.982516859 66.6432841,0.632338332 67.4755063,0.391380467 C68.3982565,0.124250851 69.3555842,-0.00750061505 70.3169465,0.000329530044 C70.5980822,0.000816189644 70.8789207,0.0184428483 71.1578674,0.0531094111 C71.445845,0.0892579649 71.7285093,0.158912975 72,0.260630307 L71.7370608,4.37506194 C71.0201359,4.16464315 70.2758895,4.05956232 69.5281288,4.06318083 C67.3977006,3.88379622 65.3230747,4.79795813 64.0318504,6.48505764 C62.7891827,8.47291852 62.1924335,10.7903265 62.3221395,13.1245268 L62.3221395,25 L58.219318,25 L58.219318,6.40708736" id="Fill-6-Copy-2"></path>
                    <path d="M79.0004913,13.0009024 C78.988394,14.207433 79.1997734,15.4065186 79.6248881,16.5428988 C80.4205919,18.6767513 82.1087557,20.3999175 84.2866347,21.3013022 C86.6662973,22.2328993 89.3347964,22.2328993 91.7144591,21.3013022 C93.8923381,20.3999175 95.5805019,18.6767513 96.3762056,16.5428988 C97.2079315,14.24782 97.2079315,11.7527934 96.3762056,9.45771467 C95.5805328,7.32356468 93.8924153,5.60001415 91.7144591,4.69811983 C89.3346372,3.76729339 86.6664565,3.76729339 84.2866347,4.69811983 C82.1086785,5.60001415 80.4205609,7.32356468 79.6248881,9.45771467 C79.1998318,10.5945217 78.9884563,11.793988 79.0004913,13.0009024 L79.0004913,13.0009024 Z M74.0036857,13 C73.9785531,11.1889699 74.3275528,9.39164051 75.0297361,7.71589676 C75.6779732,6.1815225 76.6322461,4.78903006 77.8367612,3.61983423 C79.057348,2.45428767 80.5092278,1.54616634 82.1026435,0.95161163 C85.5855999,-0.317203877 89.4187121,-0.317203877 92.9016685,0.95161163 C94.4944657,1.54665416 95.9458427,2.45472573 97.166307,3.61983423 C98.3704972,4.78954351 99.3250876,6.18188238 99.9745759,7.71589676 C101.341808,11.111552 101.341808,14.888448 99.9745759,18.2841032 C99.3255281,19.8183486 98.3708826,21.2107679 97.166307,22.3801658 C95.9458208,23.5452472 94.4944498,24.4533149 92.9016685,25.0483884 C89.4187121,26.3172039 85.5855999,26.3172039 82.1026435,25.0483884 C80.5092438,24.4538027 79.05737,23.5456852 77.8367612,22.3801658 C76.6318844,21.2112622 75.6775597,19.8186941 75.0297361,18.2841032 C74.3266024,16.6085612 73.9767516,14.8112057 74.0011983,13 L74.0036857,13 Z" id="Fill-7-Copy-2"></path>
                    <path d="M107.210818,6.39988405 C107.210818,5.2891071 107.175682,4.24950305 107.105409,3.28107189 C107.035136,2.31264072 107,1.42737788 107,0.625283371 L110.897707,0.625283371 C110.897707,1.2850321 110.915477,1.94438098 110.951017,2.60333001 C110.986557,3.26227904 111.004327,3.93922122 111.004327,4.63415655 L111.108524,4.63415655 C111.414653,4.00649597 111.813618,3.42754594 112.292254,2.91641077 C112.826013,2.34116245 113.437613,1.84181418 114.10965,1.4325759 C114.848273,0.982347779 115.644515,0.632162531 116.477109,0.391372458 C117.399387,0.124341968 118.356217,-0.00740870502 119.317092,0.00032139412 C119.598607,0.000780057838 119.879826,0.0184067354 120.159152,0.0531012923 C120.446702,0.0892984245 120.728935,0.158953417 121,0.260622256 L120.737084,4.37505523 C120.020217,4.16465334 119.276038,4.05957284 118.528343,4.06317401 C116.39806,3.88355842 114.323506,4.7977681 113.03254,6.48505162 C111.789689,8.47279094 111.192968,10.7902916 111.322977,13.1245229 L111.322977,25 L107.220511,25 L107.220511,6.40708131" id="Fill-8-Copy-2"></path>
                    <path d="M136.798527,13.0135791 C134.604345,12.9216017 132.416022,13.297739 130.386471,14.1157078 C128.892046,14.7194664 127.944667,16.1698481 128.015772,17.7451106 C127.892256,19.0396006 128.500949,20.2971027 129.604513,21.0273005 C130.803894,21.7094025 132.177524,22.045066 133.565192,21.9951412 C134.665891,22.0185942 135.759009,21.8123491 136.77122,21.3902408 C137.641764,21.0200637 138.421855,20.4741256 139.059999,19.7884644 C139.680959,19.1072512 140.157241,18.3128338 140.461318,17.451129 C140.790016,16.5294682 140.971691,15.5641076 141,14.58874 L141,13.0159988 L136.798527,13.0135791 Z M125.140714,3.80504039 C126.420262,2.50667862 127.989584,1.52054397 129.723829,0.925089794 C131.453156,0.315685436 133.275632,0.00279610712 135.112169,0 C138.82872,0 141.509511,0.863417141 143.154541,2.59025142 C144.799572,4.3170857 145.622911,6.94141938 145.624558,10.4632525 L145.624558,21.084744 C145.624558,21.7899221 145.660373,22.5202561 145.732003,23.2757461 C145.803634,24.0312361 145.892966,24.7270822 146,25.3632843 L141.978814,25.3632843 C141.827097,24.7488272 141.744268,24.1198138 141.731812,23.487543 C141.712875,22.8002175 141.70423,22.1916058 141.705877,21.6617079 L141.598431,21.6617079 C140.763395,22.941587 139.634139,24.009544 138.302195,24.779017 C136.792805,25.6237298 135.077447,26.0447099 133.342402,25.9962404 C132.119189,26.0046785 130.900788,25.8444825 129.722594,25.5203061 C128.66108,25.2344302 127.661569,24.7596098 126.773395,24.1192819 C125.938429,23.5098311 125.251615,22.7247989 124.762801,21.8211641 C124.247654,20.8448225 123.989467,19.7566295 124.011917,18.6563833 C123.908393,16.9105676 124.482356,15.1912826 125.617427,13.8471335 C126.710681,12.6708715 128.08366,11.7811425 129.612678,11.2580993 C131.272272,10.6798515 133.003194,10.3240775 134.758957,10.2003322 C136.599119,10.0599458 138.286963,9.98975255 139.82249,9.98975255 L141.428,9.98975255 L141.428,9.24968072 C141.538203,7.71893125 140.93659,6.221778 139.792849,5.18050285 C138.482092,4.19404474 136.85456,3.70616123 135.2085,3.80625761 C133.849177,3.80666509 132.4994,4.03003381 131.214484,4.46720993 C129.928756,4.89637436 128.750105,5.58964691 127.756461,6.50119025 L125.140714,3.80504039 Z" id="Fill-9-Copy-2"></path>
                </g>
            </g>
        </g>
    </g>
</svg>